<svg width="14" height="14" viewBox="0 0 14 14" fill="none" xmlns="http://www.w3.org/2000/svg">
<path d="M6.982 13.963C10.838 13.963 13.9635 10.8375 13.9635 6.9815C13.9635 3.1255 10.838 0 6.982 0C3.126 0 0 3.126 0 6.982C0 10.838 3.126 13.963 6.982 13.963Z" fill="white"/>
<path d="M6.982 0C3.126 0 0 3.126 0 6.9815H13.9635C13.9635 3.126 10.838 0 6.982 0Z" fill="#DF2C2C"/>
<path d="M6.982 0C3.126 0 0 3.126 0 6.9815H6.982V0Z" fill="#FA5655"/>
<path d="M6.98211 4.36353C6.44105 4.36353 5.91331 4.53137 5.47164 4.84391C5.02997 5.15644 4.69612 5.59828 4.51611 6.10853H0.0561104C0.0194073 6.39825 0.000871064 6.68999 0.000610352 6.98203C0.000610352 7.27803 0.0211103 7.56903 0.0571103 7.85503H4.51661C4.87661 8.87103 5.84311 9.60003 6.98261 9.60003C8.12211 9.60003 9.08861 8.87103 9.44861 7.85503H13.9081C13.9436 7.56903 13.9641 7.27803 13.9641 6.98203C13.9634 6.68636 13.9448 6.39552 13.9081 6.10952H9.44811C9.26818 5.59919 8.93437 5.15724 8.49269 4.84461C8.05102 4.53198 7.52323 4.36357 6.98211 4.36353Z" fill="#3E3E3F"/>
<path d="M6.9821 8.2905C7.32933 8.2905 7.66234 8.15256 7.90788 7.90703C8.15341 7.6615 8.29135 7.32848 8.29135 6.98125C8.29135 6.63401 8.15341 6.301 7.90788 6.05547C7.66234 5.80994 7.32933 5.672 6.9821 5.672C6.63493 5.672 6.30198 5.80991 6.05649 6.0554C5.81101 6.30088 5.6731 6.63383 5.6731 6.981C5.6731 7.32817 5.81101 7.66111 6.05649 7.9066C6.30198 8.15209 6.63493 8.29 6.9821 8.29" fill="white"/>
</svg>
